<?xml version="1.0" encoding="utf-8"?>
<!-- Generator: Adobe Illustrator 23.1.1, SVG Export Plug-In . SVG Version: 6.00 Build 0)  -->
<svg version="1.1" id="Ebene_1" xmlns="http://www.w3.org/2000/svg" xmlns:xlink="http://www.w3.org/1999/xlink" x="0px" y="0px"
	 viewBox="0 0 150 167" style="enable-background:new 0 0 150 167;" xml:space="preserve">
<style type="text/css">
	.st0{fill:url(#SVGID_1_);}
	.st1{fill:url(#SVGID_2_);}
	.st2{fill:url(#SVGID_3_);}
	.st3{fill:url(#SVGID_4_);}
	.st4{opacity:0.7;}
	.st5{fill:url(#SVGID_5_);}
	.st6{fill:url(#SVGID_6_);}
	.st7{fill:url(#SVGID_7_);}
	.st8{fill:url(#SVGID_8_);}
	.st9{fill:url(#SVGID_9_);}
	.st10{fill:url(#SVGID_10_);}
	.st11{fill:url(#SVGID_11_);}
</style>
<radialGradient id="SVGID_1_" cx="32.6612" cy="113.9448" r="42.9623" gradientUnits="userSpaceOnUse">
	<stop  offset="0.2229" style="stop-color:#E8CD77"/>
	<stop  offset="1" style="stop-color:#A58638"/>
</radialGradient>
<path class="st0" d="M50.7,61.9c0,0-46.9,56.6-49.1,84.8c-1,12.8,1.1,18.8,7.8,19.3c6.7,0.5,18-8.3,25-14.5
	c6.9-6.2,9.4-13.4,9.4-13.4s11-3.6,16.9-14.5C72,102.9,50.7,61.9,50.7,61.9z"/>
<linearGradient id="SVGID_2_" gradientUnits="userSpaceOnUse" x1="7.0084" y1="56.6942" x2="39.302" y2="77.6869">
	<stop  offset="0.5832" style="stop-color:#E8CD77"/>
	<stop  offset="1" style="stop-color:#A58638"/>
</linearGradient>
<path class="st1" d="M37.7,81.1c-3.1-2.2-8.3-18.9-8.3-18.9l-0.5,0.6L0.1,53.4l0.5,1.4l26.9,9.6c0,0,1.2,5,3.1,10.1
	c2,5.1,4.9,9.9,4.9,9.9S40.8,83.2,37.7,81.1z"/>
<radialGradient id="SVGID_3_" cx="116.7131" cy="113.9448" r="42.9623" gradientUnits="userSpaceOnUse">
	<stop  offset="0.2229" style="stop-color:#E8CD77"/>
	<stop  offset="1" style="stop-color:#A58638"/>
</radialGradient>
<path class="st2" d="M98.7,61.9c0,0,46.9,56.6,49.1,84.8c1,12.8-1.1,18.8-7.8,19.3c-6.7,0.5-18-8.3-25-14.5
	c-6.9-6.2-9.4-13.4-9.4-13.4s-11-3.6-16.9-14.5C77.4,102.9,98.7,61.9,98.7,61.9z"/>
<linearGradient id="SVGID_4_" gradientUnits="userSpaceOnUse" x1="-230.7227" y1="56.6942" x2="-198.4292" y2="77.6869" gradientTransform="matrix(-1 0 0 1 -88.3568 0)">
	<stop  offset="0.5832" style="stop-color:#E8CD77"/>
	<stop  offset="1" style="stop-color:#A58638"/>
</linearGradient>
<path class="st3" d="M111.7,81.1c3.1-2.2,8.3-18.9,8.3-18.9l0.5,0.6l28.7-9.4l-0.5,1.4l-26.9,9.6c0,0-1.2,5-3.1,10.1
	c-2,5.1-4.9,9.9-4.9,9.9S108.6,83.2,111.7,81.1z"/>
<g class="st4">
	<radialGradient id="SVGID_5_" cx="74.6934" cy="143.6647" r="1.474096e-02" gradientUnits="userSpaceOnUse">
		<stop  offset="0.5832" style="stop-color:#E8CD77"/>
		<stop  offset="1" style="stop-color:#A58638"/>
	</radialGradient>
	<polygon class="st5" points="74.7,143.6 74.7,143.6 74.7,143.7 	"/>
	<radialGradient id="SVGID_6_" cx="74.6809" cy="143.6647" r="1.474096e-02" gradientUnits="userSpaceOnUse">
		<stop  offset="0.5832" style="stop-color:#E8CD77"/>
		<stop  offset="1" style="stop-color:#A58638"/>
	</radialGradient>
	<polygon class="st6" points="74.7,143.7 74.7,143.6 74.7,143.6 	"/>
	<radialGradient id="SVGID_7_" cx="74.2378" cy="90.7869" r="87.5341" gradientUnits="userSpaceOnUse">
		<stop  offset="0.5832" style="stop-color:#E8CD77"/>
		<stop  offset="1" style="stop-color:#A58638"/>
	</radialGradient>
	<path class="st7" d="M147.8,146.7C145.7,119.4,99,61.8,99,61.8c0,0,0.1-5.6,0.1-6.2c0-8.1-4.9-16.4-8.7-19.9c0,0,0.2-1.3,0.2-1.3
		c3.5,0,6.9-2.3,6.9-4.5c0-6.8-11.2-10-14.5-10c-1.3,0-2.6,0.3-3.8,0.8c-0.2,0.1-0.4-0.1-0.3-0.3c1.9-3.3,5.3-6,6-6.6
		c0.1-0.1,0.1-0.2,0.1-0.2L84.8,13c0,0-10,5.6-10.1,10.4C74.6,18.7,64.6,13,64.6,13l-0.2,0.7c0,0.1,0,0.2,0.1,0.2
		c0.7,0.5,4,3.3,6,6.6c0.1,0.2-0.1,0.4-0.3,0.3C69,20.2,67.6,20,66.3,20c-3.2,0-14.5,3.2-14.5,10c0,2.2,3.5,4.5,6.9,4.5
		c0,0,0.2,1.3,0.2,1.3c-3.9,3.5-8.7,11.7-8.7,19.9c0,0.5,0.1,6.2,0.1,6.2c0,0-46.7,57.6-48.8,84.9c-0.7,8.8,0.1,14.4,2.8,17.2
		l0.4-0.2c0,0-2.4-3.9-1.3-18c1.1-13.8,31.5-49,32.5-50.3c0,0,0,0,0.1-0.1l23.4-11.3c0.1-0.1,0.2-0.2,0.1-0.3
		c0,0,12.5,23.2,5.6,38.6c-2,4.6-5,8-7.8,10.5c-0.1,0.1-0.1,0.1-0.1,0.2c0,0,4.9,10.5,17.5,10.5v0c0,0,0,0,0,0s0,0,0,0v0
		c12.6,0,17.5-10.5,17.5-10.5c0-0.1,0-0.2-0.1-0.2c-2.8-2.5-5.8-5.9-7.8-10.5c-6.9-15.4,5.6-38.6,5.6-38.6c0,0.1,0,0.2,0.1,0.3
		l23.4,11.3c0,0,0.1,0,0.1,0.1c1.1,1.2,31.5,36.4,32.5,50.3c1.1,14.1-1.3,18-1.3,18l0.4,0.2C147.7,161,148.5,155.5,147.8,146.7z"/>
</g>
<g>
	<linearGradient id="SVGID_8_" gradientUnits="userSpaceOnUse" x1="99.0712" y1="57.0793" x2="99.0982" y2="57.1254">
		<stop  offset="0" style="stop-color:#E8CD77"/>
		<stop  offset="1" style="stop-color:#A58638"/>
	</linearGradient>
	<path class="st8" d="M99.1,57C99.1,57.1,99.1,57.1,99.1,57l0,0.1C99.1,57.1,99.1,57.1,99.1,57z"/>
	<linearGradient id="SVGID_9_" gradientUnits="userSpaceOnUse" x1="110.352" y1="23.0476" x2="119.5286" y2="38.7027">
		<stop  offset="0" style="stop-color:#E8CD77"/>
		<stop  offset="1" style="stop-color:#A58638"/>
	</linearGradient>
	<path class="st9" d="M96.2,43.9c1.6,3.3,2.8,7.2,2.9,11c0-2.2,0.2-5.7,0.9-8.1c1.2-3.8,3.5-7.6,3.5-7.6l-0.8-0.9l8.2-15l0.9-1
		l15.5-21.6L126.4,0l-15.7,21h-0.8l-8.6,15.9C101.3,36.8,99.6,41.3,96.2,43.9z"/>
</g>
<g>
	<linearGradient id="SVGID_10_" gradientUnits="userSpaceOnUse" x1="50.2885" y1="57.0797" x2="50.3146" y2="57.1243">
		<stop  offset="0" style="stop-color:#E8CD77"/>
		<stop  offset="1" style="stop-color:#A58638"/>
	</linearGradient>
	<path class="st10" d="M50.3,57.1C50.3,57.1,50.3,57.1,50.3,57.1C50.3,57.1,50.3,57.1,50.3,57.1L50.3,57.1z"/>
	<linearGradient id="SVGID_11_" gradientUnits="userSpaceOnUse" x1="33.6914" y1="18.5793" x2="50.4327" y2="47.1396">
		<stop  offset="0" style="stop-color:#E8CD77"/>
		<stop  offset="1" style="stop-color:#A58638"/>
	</linearGradient>
	<path class="st11" d="M38.5,23.4l8.2,15l-0.8,0.9c0,0,2.3,3.8,3.5,7.6c0.7,2.4,0.9,5.8,0.9,8.1c0.1-3.9,1.3-7.7,2.9-11
		c-3.4-2.6-5.1-7.1-5.1-7.1l-8.6-15.9h-0.8L22.9,0l-0.8,0.8l15.5,21.6L38.5,23.4z"/>
</g>
</svg>
